<svg width="226" height="19" viewBox="0 0 226 19" fill="none" xmlns="http://www.w3.org/2000/svg">
<rect width="226" height="19" fill="#FDF4F5"/>
<path d="M4 4.5C4.00166 4.49216 4.07745 4.49333 4.08368 4.49308C14.3645 4.0816 24.655 3.73937 34.9405 3.47276C35.6924 3.45327 36.4444 3.43347 37.1964 3.41511C37.9689 3.39624 38.7415 3.37922 39.5141 3.3642C39.828 3.3581 40.1419 3.35216 40.4559 3.34638C81.2539 2.59509 122.142 1.83008 162.941 2.29348C173.083 2.40868 183.219 2.45973 193.361 2.30315C196.395 2.25632 208.724 1.97212 207.746 2.37848C207.465 2.49528 211.655 3.3937 211.438 4.86053C211.077 7.29914 206.864 6.87785 208.883 6.96059C210.724 7.03608 205.197 6.90154 203.354 6.86589C199.624 6.79372 195.893 6.73256 192.162 6.67899C180.949 6.518 169.742 6.6282 158.53 6.7578C125.009 7.14527 91.4659 6.11075 57.9413 5.86108C44.0245 5.75744 30.1266 5.3861 16.2183 4.92045C15.5076 4.89666 4.09563 4.95156 4 4.5Z" fill="#FC2947"/>
<path d="M16.6768 12.7847C16.0513 9.31533 43.554 9.28036 55.179 9.7102C96.6153 11.2423 138.116 10.0515 179.59 10.63C190.797 10.7864 202.001 11.087 213.206 11.3502C214.064 11.3704 223.065 11.3035 223.369 12.4002C223.488 12.8298 209.332 13.5193 208.624 13.5365C198.777 13.7762 188.934 14.0462 179.085 14.1805C138.061 14.7402 96.8898 13.0363 55.9243 15.0604C47.3013 15.4865 17.0804 15.0237 16.6768 12.7847Z" fill="#FC2947"/>
</svg>
