<svg width="207" height="3" viewBox="0 0 207 3" fill="none" xmlns="http://www.w3.org/2000/svg">
<path d="M0 1.5C0.038887 1.45281 3.78044 1.46103 4.0111 1.45877C14.8395 1.35269 25.6695 1.20964 36.497 1.14901C77.3219 0.920434 118.237 0.687679 159.019 0.82867C169.158 0.863719 179.292 0.879249 189.439 0.831611C192.476 0.817357 204.81 0.7316 203.824 0.854372C203.508 0.893655 207.633 1.88348 206.198 2.14184C205.403 2.28484 202.346 2.21793 204.795 2.24863C206.634 2.27169 201.111 2.23067 199.27 2.21982C195.542 2.19786 191.813 2.17925 188.084 2.16296C176.877 2.11397 165.667 2.1475 154.449 2.18693C120.914 2.30482 87.4085 1.99007 53.8928 1.91411C39.9797 1.88257 26.095 1.7696 12.2033 1.62792C11.4909 1.62066 0.0821642 1.63934 0 1.5Z" fill="black"/>
</svg>
