<svg width="213" height="4" viewBox="0 0 213 4" fill="none" xmlns="http://www.w3.org/2000/svg">
<path d="M211.5 3.67873C211.55 3.66604 210.994 3.67813 211.04 3.67877C223.624 3.85341 160.493 3.45446 173.069 3.63431C213.955 4.21905 10.4292 1.89218 50.7945 2.76669C60.6878 2.98102 10.9412 2.3439 20.9583 2.48924C25.8227 2.55982 7.22909 2.30146 6.46464 2.35533C6.2671 2.36925 5.1172 1.3537 4.39938 1.71734C3.74095 2.05089 7.32356 1.04388 8.24623 1.16086C8.39813 1.18011 7.92695 1.13122 7.74107 1.1263C-43.4873 -0.229455 214.91 3.97403 163.194 2.87804C150.765 2.61464 212.489 3.81223 200.211 3.4685C199.15 3.4388 211.562 3.96921 211.5 3.67873Z" fill="black"/>
</svg>
