<svg width="208" height="5" viewBox="0 0 208 5" fill="none" xmlns="http://www.w3.org/2000/svg">
<path d="M0 2.5C0.00165985 2.49216 0.07745 2.49333 0.0836838 2.49308C10.3645 2.0816 20.655 1.73937 30.9405 1.47276C31.6924 1.45327 32.4444 1.43347 33.1964 1.41511C33.9689 1.39624 34.7415 1.37922 35.5141 1.3642C35.828 1.3581 36.1419 1.35216 36.4559 1.34638C77.2539 0.595094 118.142 -0.169924 158.941 0.293482C169.083 0.408682 179.219 0.459726 189.361 0.303149C192.395 0.256316 204.724 -0.0278839 203.746 0.378477C203.465 0.495285 207.655 1.3937 207.438 2.86053C207.077 5.29914 202.864 4.87785 204.883 4.96059C206.724 5.03608 201.197 4.90154 199.354 4.86589C195.624 4.79372 191.893 4.73256 188.162 4.67899C176.949 4.518 165.742 4.6282 154.53 4.7578C121.009 5.14527 87.4659 4.11075 53.9413 3.86108C40.0245 3.75744 26.1266 3.3861 12.2183 2.92045C11.5076 2.89666 0.0956282 2.95156 0 2.5Z" fill="black"/>
</svg>
