<svg width="800" height="800" viewBox="0 0 800 800" fill="none" xmlns="http://www.w3.org/2000/svg">
<path d="M225.979 404.303C189.273 367.786 189.273 308.362 225.979 271.843C234.334 263.528 247.881 263.528 256.237 271.843L359.12 374.195C367.476 382.512 367.475 395.991 359.12 404.302C322.414 440.822 262.685 440.825 225.979 404.303Z" fill="#F9EBCF"/>
<path d="M272.882 295.925C255.749 312.972 255.753 340.6 272.882 357.642C290.009 374.684 317.784 374.684 334.912 357.642C336.195 356.365 337.35 355.014 338.442 353.625L276.917 292.417C275.523 293.503 274.162 294.651 272.882 295.925Z" fill="#FFCC60"/>
<path d="M245.581 404.209C234.051 392.619 214.993 390.962 194.066 397.687C200.762 376.653 199.112 357.497 187.579 345.9C174.612 332.868 152.122 332.393 128.163 342.289C106.1 326.883 75.5737 329.05 55.908 348.817C36.2408 368.586 34.0876 399.273 49.4111 421.455C39.5673 445.539 40.0361 468.147 53.0049 481.185C64.5362 492.777 83.5956 494.433 104.522 487.705C97.8316 508.743 99.4785 527.902 111.01 539.493C122.541 551.086 141.599 552.741 162.527 546.015C155.833 567.052 157.483 586.209 169.019 597.804C190.482 619.379 238.006 606.59 275.165 569.229C312.328 531.872 325.054 484.097 303.59 462.527C292.059 450.931 273.001 449.272 252.073 456.002C258.765 434.961 257.113 415.805 245.581 404.209Z" fill="#78B591"/>
<path d="M296.97 461.588C275.893 502.585 225.484 518.625 184.594 497.336C175.288 492.489 171.632 480.996 176.429 471.663L235.493 356.747C240.292 347.411 251.726 343.776 261.034 348.622C301.923 369.909 318.045 420.588 296.97 461.588Z" fill="#EF645E"/>
<path d="M579.396 431.783C610.851 431.783 636.351 406.414 636.351 375.12C636.351 343.826 610.851 318.457 579.396 318.457C547.941 318.457 522.441 343.826 522.441 375.12C522.441 406.414 547.941 431.783 579.396 431.783Z" fill="#EF645E"/>
<path d="M703.025 567.579C714.37 556.293 715.993 537.638 709.411 517.152C729.998 523.707 748.748 522.09 760.094 510.802C772.853 498.11 773.315 476.099 763.631 452.646C778.706 431.05 776.587 401.169 757.24 381.92C737.893 362.675 707.859 360.565 686.153 375.562C662.578 365.928 640.454 366.389 627.696 379.08C616.349 390.367 614.726 409.022 621.312 429.508C600.721 422.956 581.971 424.57 570.626 435.858C559.28 447.146 557.657 465.8 564.241 486.285C543.654 479.733 524.904 481.349 513.557 492.638C492.439 513.647 504.96 560.163 541.521 596.537C578.08 632.907 624.838 645.368 645.954 624.359C657.301 613.071 658.923 594.418 652.337 573.932C672.928 580.482 691.678 578.866 703.025 567.579Z" fill="#78B591"/>
<path d="M179.346 570.133C210.801 570.133 236.301 544.765 236.301 513.471C236.301 482.177 210.801 456.808 179.346 456.808C147.891 456.808 122.391 482.177 122.391 513.471C122.391 544.765 147.891 570.133 179.346 570.133Z" fill="#FFAB5F"/>
<path d="M550.188 356.053C537.994 343.919 517.836 342.186 495.707 349.225C502.788 327.208 501.044 307.154 488.844 295.023C475.132 281.381 451.352 280.884 426.011 291.242C402.678 275.118 370.397 277.385 349.6 298.078C328.803 318.765 326.528 350.886 342.731 374.1C332.322 399.309 332.817 422.969 346.533 436.613C358.728 448.745 378.883 450.478 401.012 443.438C393.934 465.455 395.678 485.51 407.873 497.641C420.069 509.774 440.225 511.508 462.357 504.468C455.277 526.488 457.021 546.541 469.219 558.671C491.914 581.254 542.174 567.865 581.471 528.771C620.77 489.669 634.229 439.667 611.532 417.089C599.337 404.953 579.182 403.22 557.051 410.261C564.129 388.236 562.382 368.186 550.188 356.053Z" fill="#A5BC79"/>
<path d="M358.081 195.285C325.398 227.798 272.225 227.798 239.543 195.284C232.104 187.882 232.104 175.882 239.543 168.485L331.139 77.3566C338.581 69.9534 350.64 69.955 358.08 77.3566C390.759 109.869 390.762 162.771 358.081 195.285Z" fill="#EF645E"/>
<path d="M493.664 236.57C515.868 236.57 533.868 218.662 533.868 196.573C533.868 174.483 515.868 156.576 493.664 156.576C471.461 156.576 453.461 174.483 453.461 196.573C453.461 218.662 471.461 236.57 493.664 236.57Z" fill="#FFAB5F"/>
<path d="M584.546 40.4658C590.112 46.0049 590.112 54.983 584.546 60.5252L560.354 84.5941C554.787 90.1316 545.761 90.13 540.193 84.5941L516.002 60.5252C510.435 54.9846 510.435 46.0064 516.002 40.4658L540.193 16.3985C545.761 10.861 554.787 10.861 560.354 16.3985L584.546 40.4658Z" fill="#C14616"/>
<path d="M164.354 222.188C168.854 226.665 168.854 233.926 164.354 238.401L144.801 257.854C140.302 262.331 133.008 262.328 128.508 257.854L108.957 238.401C104.457 233.926 104.457 226.665 108.957 222.188L128.51 202.74C133.01 198.263 140.304 198.265 144.802 202.74L164.354 222.188Z" fill="#A5BC79"/>
<path d="M673.323 258.881C677.823 263.357 677.823 270.617 673.323 275.092L653.771 294.545C649.273 299.021 641.979 299.018 637.479 294.545L617.927 275.092C613.427 270.617 613.427 263.357 617.927 258.881L637.479 239.431C641.981 234.954 649.274 234.956 653.771 239.431L673.323 258.881Z" fill="#C14616"/>
<path d="M339.039 530.193C306.357 562.705 253.184 562.705 220.501 530.191C213.062 522.791 213.062 510.793 220.501 503.393L312.097 412.264C319.539 404.863 331.6 404.866 339.037 412.264C371.717 444.777 371.722 497.682 339.039 530.193Z" fill="#C14616"/>
<path d="M133.227 513.354C140.212 520.302 140.212 531.566 133.227 538.516L102.879 568.707C95.8941 575.655 84.5722 575.652 77.5894 568.707L47.2393 538.516C40.2564 531.566 40.2564 520.302 47.2393 513.354L77.5878 483.161C84.5738 476.21 95.8926 476.216 102.877 483.161L133.227 513.354Z" fill="#EF645E"/>
<path d="M490.955 516.033C517.964 516.033 539.858 494.251 539.858 467.381C539.858 440.512 517.964 418.73 490.955 418.73C463.946 418.73 442.052 440.512 442.052 467.381C442.052 494.251 463.946 516.033 490.955 516.033Z" fill="#FFAB5F"/>
<path d="M659.364 553.99C681.567 553.99 699.567 536.083 699.567 513.994C699.567 491.905 681.567 473.999 659.364 473.999C637.16 473.999 619.16 491.905 619.16 513.994C619.16 536.083 637.16 553.99 659.364 553.99Z" fill="#FFAB5F"/>
<path d="M597.691 501.658C606.051 509.975 606.051 523.46 597.691 531.777L561.363 567.918C553.004 576.238 539.451 576.235 531.09 567.918L494.763 531.777C486.403 523.458 486.403 509.972 494.763 501.658L531.09 465.514C539.452 457.197 553.004 457.2 561.363 465.514L597.691 501.658Z" fill="#EF645E"/>
<path d="M371.067 552.571C334.361 516.052 334.361 456.631 371.067 420.109C379.422 411.795 392.97 411.795 401.325 420.109L504.208 522.463C512.564 530.78 512.563 544.258 504.208 552.569C467.502 589.088 407.772 589.091 371.067 552.571Z" fill="white"/>
<path d="M417.97 444.191C400.839 461.236 400.841 488.866 417.97 505.908C435.097 522.95 462.872 522.95 480.002 505.908C481.283 504.632 482.439 503.28 483.532 501.888L422.006 440.681C420.609 441.77 419.252 442.917 417.97 444.191Z" fill="#FFCC60"/>
<path d="M243.19 742.592C190.585 742.592 139.727 723.797 99.9863 689.671C60.5081 655.771 34.4611 608.948 26.6407 557.818C25.8032 552.358 27.4064 546.805 31.0251 542.615C34.6455 538.424 39.9205 536.013 45.4721 536.013H745.7C751.253 536.013 756.528 538.422 760.147 542.615C763.765 546.804 765.367 552.358 764.531 557.818C756.711 608.946 730.664 655.771 691.186 689.671C651.445 723.797 600.584 742.592 547.98 742.592H243.19Z" fill="#F9EBCF"/>
<path opacity="0.1" d="M95.0035 557.818C94.166 552.358 95.7691 546.805 99.3879 542.615C103.008 538.424 108.283 536.013 113.835 536.013H45.4736C39.9205 536.013 34.6454 538.422 31.0267 542.615C27.4064 546.804 25.8048 552.358 26.6423 557.818C34.4626 608.946 60.5096 655.771 99.9879 689.671C139.729 723.797 190.587 742.592 243.192 742.592H311.554C258.949 742.592 208.091 723.797 168.351 689.671C128.872 655.771 102.824 608.946 95.0035 557.818Z" fill="black"/>
<path d="M212.845 576.86H35.4236C33.7439 576.86 32.1454 577.199 30.6892 577.813C32.697 585.793 35.1611 593.634 38.0517 601.301H212.845C219.595 601.301 225.065 595.829 225.065 589.082C225.065 582.332 219.595 576.86 212.845 576.86Z" fill="#DDB690"/>
<path d="M170.999 633.715H62.0252C59.3362 633.715 56.8565 634.595 54.8377 636.068C59.4112 643.717 64.4456 651.098 69.9409 658.154H170.996C177.744 658.154 183.215 652.685 183.215 645.935C183.218 639.188 177.748 633.715 170.999 633.715Z" fill="#DDB690"/>
<path d="M603.359 771.584C603.359 780.517 596.119 787.758 587.19 787.758H203.982C195.052 787.758 187.813 780.517 187.813 771.584V757.03C187.813 748.097 195.052 740.856 203.982 740.856H587.19C596.119 740.856 603.359 748.098 603.359 757.03V771.584Z" fill="#A5BC79"/>
<path opacity="0.1" d="M255.934 771.584V757.03C255.934 748.097 263.173 740.856 272.103 740.856H203.984C195.054 740.856 187.815 748.098 187.815 757.03V771.584C187.815 780.517 195.054 787.758 203.984 787.758H272.103C263.173 787.758 255.934 780.517 255.934 771.584Z" fill="black"/>
<path d="M493.672 248.815C522.591 248.815 546.121 225.381 546.121 196.573C546.121 167.765 522.593 144.329 493.672 144.329C464.753 144.329 441.225 167.763 441.225 196.573C441.225 225.381 464.752 248.815 493.672 248.815ZM493.672 168.821C509.088 168.821 521.632 181.271 521.632 196.574C521.632 211.877 509.089 224.326 493.672 224.326C478.257 224.326 465.714 211.877 465.714 196.574C465.716 181.271 478.257 168.821 493.672 168.821Z" fill="black"/>
<path d="M531.56 93.2785C536.565 98.2519 543.208 100.991 550.276 100.991C557.341 100.991 563.988 98.2519 568.991 93.2754L593.185 69.205C598.202 64.2096 600.966 57.5658 600.966 50.4986C600.966 43.4299 598.202 36.7861 593.184 31.7861L568.988 7.71722C563.985 2.74064 557.338 0 550.272 0C543.207 0 536.56 2.74064 531.555 7.71722L507.363 31.7861C502.344 36.7798 499.58 43.4252 499.58 50.4971C499.58 57.5659 502.344 64.2096 507.364 69.205L531.56 93.2785ZM524.636 49.1471L548.826 25.0813C549.315 24.5938 549.882 24.4923 550.271 24.4923C550.66 24.4923 551.226 24.5954 551.716 25.0813L575.905 49.1455C576.376 49.6127 576.474 50.1377 576.474 50.4971C576.474 50.8549 576.374 51.3799 575.907 51.8455L551.716 75.9128C551.227 76.3987 550.662 76.5003 550.272 76.5003C549.882 76.5003 549.316 76.3972 548.827 75.9144L524.638 51.8455C524.168 51.3783 524.069 50.8549 524.069 50.4971C524.071 50.1377 524.169 49.6127 524.636 49.1471Z" fill="black"/>
<path d="M119.877 266.537C124.363 270.998 130.322 273.454 136.66 273.454C142.997 273.454 148.957 270.995 153.44 266.534L172.99 247.084C177.494 242.604 179.974 236.642 179.976 230.298C179.976 223.951 177.496 217.99 172.991 213.507L153.44 194.06C148.954 189.596 142.994 187.138 136.657 187.138C130.319 187.138 124.36 189.598 119.874 194.059L100.321 213.507C95.816 217.988 93.3363 223.951 93.3363 230.298C93.3363 236.642 95.8176 242.603 100.319 247.081L119.877 266.537ZM136.657 211.907L155.14 230.295L136.655 248.687L118.172 230.295L136.657 211.907Z" fill="black"/>
<path d="M628.846 303.229C633.334 307.692 639.293 310.145 645.626 310.145C651.963 310.145 657.923 307.686 662.407 303.225L681.957 283.775C686.462 279.295 688.942 273.334 688.943 266.989C688.943 260.642 686.464 254.682 681.959 250.199L662.407 230.751C657.923 226.287 651.962 223.829 645.623 223.829C639.288 223.829 633.327 226.288 628.842 230.749L609.29 250.199C604.785 254.681 602.305 260.642 602.305 266.989C602.307 273.332 604.787 279.293 609.288 283.771L628.846 303.229ZM645.624 248.599L664.107 266.989L645.624 285.379L627.141 266.989L645.624 248.599Z" fill="black"/>
<path d="M256.992 431.014L258.676 431.889C260.481 432.827 262.412 433.272 264.312 433.272C268.737 433.272 273.007 430.866 275.189 426.669C278.307 420.669 275.971 413.277 269.968 410.158L268.284 409.283C262.279 406.164 254.89 408.503 251.771 414.503C248.656 420.503 250.992 427.895 256.992 431.014Z" fill="black"/>
<path d="M298.814 231.904C323.403 231.901 348 222.59 366.717 203.966C384.85 185.927 394.836 161.904 394.834 136.322C394.834 110.74 384.847 86.7175 366.716 68.6768C354.528 56.5471 334.694 56.5471 322.501 68.6768L275.9 115.043C271.106 119.811 271.087 127.565 275.856 132.358C280.625 137.152 288.378 137.169 293.173 132.401L339.772 86.0363C342.437 83.3831 346.775 83.3831 349.44 86.0363C351.639 88.2238 353.659 90.541 355.53 92.9488C348.009 94.9551 342.901 103.8 346.169 111.11C347.975 115.152 351.944 117.958 356.356 118.315C360.487 118.647 363.912 116.852 366.762 114.015C369.105 121.116 370.342 128.619 370.342 136.319C370.342 155.333 362.92 173.191 349.442 186.601C329.972 205.973 301.99 211.815 277.367 204.168C282.22 198.057 279.764 190.123 274.06 185.654C267.203 180.28 256.721 183.687 254.567 192.221C252.356 190.49 250.215 188.629 248.176 186.601C246.906 185.337 246.206 183.659 246.206 181.879C246.207 180.099 246.906 178.426 248.176 177.162L258.884 166.508C263.678 161.738 263.698 153.985 258.928 149.19C254.157 144.396 246.406 144.379 241.61 149.146L230.902 159.799C224.979 165.691 221.715 173.532 221.713 181.874C221.712 190.218 224.976 198.062 230.902 203.957C249.631 222.593 274.218 231.906 298.814 231.904Z" fill="black"/>
<path d="M305.49 190.052C308.637 190.052 311.782 188.848 314.175 186.44C318.942 181.643 318.918 173.891 314.125 169.124L312.778 167.785C307.981 163.019 300.228 163.043 295.462 167.837C290.695 172.633 290.718 180.385 295.512 185.154L296.859 186.493C299.246 188.868 302.368 190.052 305.49 190.052Z" fill="black"/>
<path d="M339.165 159.232C342.306 159.232 345.448 158.032 347.84 155.63C352.614 150.84 352.6 143.087 347.809 138.315L346.462 136.972C341.672 132.197 333.917 132.211 329.147 137.004C324.373 141.796 324.387 149.547 329.178 154.319L330.525 155.662C332.912 158.043 336.039 159.232 339.165 159.232Z" fill="black"/>
<path d="M765.875 373.239C753.051 360.483 736.009 353.459 717.882 353.459C706.203 353.459 694.901 356.389 684.839 361.98C674.648 358.431 664.839 356.639 655.601 356.639C652.346 356.639 649.207 356.881 646.181 357.333C642.098 342.164 632.898 328.584 619.848 319.204C614.354 315.257 606.704 316.511 602.759 322.003C598.81 327.495 600.065 335.145 605.555 339.094C614.848 345.772 621.131 355.731 623.274 366.726C621.798 367.862 620.385 369.08 619.059 370.4C611.677 377.744 607.226 387.439 605.776 398.645C598.632 395.498 590.463 393.873 581.526 393.873C578.732 393.873 575.879 394.031 572.971 394.344C575.01 375.197 570.163 358.658 558.822 347.373C556.391 344.954 553.712 342.829 550.812 341.001C558.566 334.576 568.524 330.697 579.387 330.697C586.149 330.697 591.632 325.215 591.632 318.451C591.632 311.687 586.149 306.206 579.387 306.206C557.144 306.206 537.322 316.711 524.655 332.998C523.185 332.903 521.697 332.843 520.182 332.843C517.388 332.843 514.536 333.001 511.63 333.314C513.671 314.164 508.824 297.626 497.48 286.343C487.927 276.84 474.569 271.815 458.847 271.815C448.905 271.815 438.328 273.773 427.333 277.64C416.563 271.574 404.439 268.396 391.903 268.396C372.664 268.396 354.572 275.854 340.964 289.393C331.992 298.318 325.833 309.089 322.559 320.547L264.876 263.162C258.524 256.842 250.084 253.36 241.109 253.36C232.132 253.36 223.693 256.842 217.343 263.159C199.216 281.193 188.473 304.634 186.548 329.862C178.791 325.465 169.533 323.178 159.212 323.178C149.819 323.178 139.844 325.023 129.486 328.67C119.266 322.922 107.783 319.911 95.9098 319.911C77.5159 319.911 60.2284 327.108 47.2283 340.175C25.261 362.255 20.9017 396.039 35.8267 422.769C26.3548 450.052 29.3907 474.799 44.3252 489.813C45.8642 491.36 47.5158 492.774 49.2549 494.072L38.6048 504.666C32.9001 510.341 29.7595 517.893 29.7595 525.927C29.7595 526.61 29.7861 527.285 29.8314 527.96C26.822 529.694 24.0814 531.918 21.761 534.605C15.7891 541.518 13.1579 550.652 14.5391 559.663C22.8017 613.682 50.3158 663.151 92.0113 698.956C117.177 720.564 146.569 736.317 178.04 745.49C176.465 749.019 175.569 752.915 175.569 757.023V771.578C175.569 787.248 188.316 799.997 203.982 799.997H587.19C602.857 799.997 615.602 787.247 615.602 771.578V757.023C615.602 752.915 614.707 749.02 613.134 745.49C627.924 741.187 642.288 735.433 655.937 728.278C661.928 725.139 664.237 717.737 661.098 711.747C657.959 705.757 650.556 703.445 644.567 706.587C622.787 718.003 598.98 725.45 574.582 728.604H216.406C166.14 722.09 115.855 696.381 84.2769 656.135C65.1409 631.746 52.8018 606.143 43.0877 576.854C41.2845 569.99 39.8252 563.019 38.7455 555.955C38.1252 551.91 41.4267 548.252 45.4736 548.252H745.701C749.753 548.252 753.048 551.912 752.43 555.96C745.495 601.285 723.064 643.549 689.265 674.965C684.312 679.568 684.029 687.317 688.632 692.271C693.236 697.22 700.984 697.507 705.939 692.903C743.765 657.745 768.875 610.426 776.637 559.666C778.017 550.652 775.386 541.521 769.417 534.608C766.517 531.251 762.972 528.605 759.05 526.76C762.608 524.771 765.85 522.343 768.726 519.48C783.491 504.793 786.53 480.622 777.233 453.972C791.902 427.817 787.566 394.822 765.875 373.239C787.566 394.822 753.053 360.484 765.875 373.239ZM200.059 757.03C200.059 754.862 201.818 753.101 203.982 753.101H587.19C589.352 753.101 591.113 754.862 591.113 757.03V771.584C591.113 773.751 589.354 775.512 587.19 775.512H203.982C201.82 775.512 200.059 773.751 200.059 771.584V757.03ZM328.606 376.958C326.579 382.966 325.147 388.844 324.303 394.527C320.942 394.667 317.675 395.32 314.595 396.467C313.203 391.653 311.426 386.95 309.309 382.4C316.084 381.756 322.597 379.901 328.606 376.958ZM277.187 309.961L320.787 353.336C315.781 356.49 309.97 358.178 303.893 358.178C287.57 358.178 272.276 343.145 272.276 326.784C272.278 320.733 273.99 314.942 277.187 309.961ZM234.618 280.523C236.349 278.801 238.654 277.853 241.11 277.853C243.567 277.853 245.87 278.801 247.604 280.525L259.617 292.476C251.957 302.245 247.79 314.19 247.79 326.783C247.79 329.386 247.971 331.959 248.324 334.493C238.22 335.781 229.354 341.911 224.607 351.148L216.201 367.506C212.598 358.248 210.698 348.312 210.698 338.075C210.695 316.307 219.188 295.871 234.618 280.523ZM54.6971 523.771C54.9424 523.197 55.3096 522.599 55.8768 522.035L86.2253 491.843C87.666 490.411 89.3519 490.197 90.2316 490.197C91.1113 490.197 92.8019 490.411 94.2426 491.844L124.591 522.036C125.158 522.6 125.527 523.199 125.771 523.772H54.6971V523.771ZM118.246 481.177L111.511 474.478C105.822 468.821 98.2645 465.706 90.23 465.706C82.1956 465.706 74.6378 468.822 68.9518 474.482L67.0362 476.386C65.0237 475.36 63.2237 474.094 61.6862 472.546C52.8424 463.653 52.4908 446.285 60.7456 426.084C62.3096 422.255 61.8377 417.894 59.4846 414.491C47.2205 396.739 49.3658 372.748 64.5862 357.447C72.955 349.036 84.0785 344.401 95.9066 344.401C104.999 344.401 113.729 347.14 121.149 352.325C124.571 354.715 128.976 355.197 132.833 353.601C142.232 349.72 151.352 347.669 159.208 347.669C167.74 347.669 174.363 349.976 178.891 354.531C186.621 362.303 187.898 376.676 182.393 393.97C181.002 398.339 182.169 403.119 185.415 406.355C187.826 408.758 191.085 410.005 194.391 409.919L176.562 444.611C174.063 444.711 171.613 444.978 169.188 445.335L108.158 383.983C103.389 379.189 95.6379 379.17 90.841 383.937C86.0457 388.708 86.0269 396.459 90.7957 401.253L143.719 454.455C133.002 460.905 124.152 470.138 118.246 481.177ZM211.866 494.713C205.941 500.607 202.677 508.449 202.677 516.793C202.677 519.172 202.968 521.507 203.488 523.769H150.604C150.091 516.552 147.051 509.835 141.863 504.672L136.854 499.688C142.704 481.919 159.538 469.046 179.351 469.046C195.163 469.046 209.049 477.264 216.996 489.607L211.866 494.713ZM202.137 448.433L246.384 362.345C248.053 359.101 252.137 357.797 255.378 359.483C258.199 360.95 260.873 362.594 263.412 364.372C256.965 368.456 254.685 378.241 259.712 384.25C265.651 391.348 276.598 389.191 280.407 381.181C287.317 390.811 291.725 402.014 293.304 413.684L252.31 454.469C249.288 449.363 242.099 446.355 236.409 448.153C228.896 450.528 225.545 459.689 229.76 466.369C222.21 458.353 212.766 452.141 202.137 448.433ZM291.693 523.771C304.262 517.815 297.804 499.118 285.073 499.15C270.593 499.186 269.634 518.288 281.204 523.771H258.212C257.543 522.947 256.79 522.185 256.021 521.455C251.224 516.69 243.471 516.713 238.706 521.507C237.067 523.157 237.476 523.352 235.568 523.769C234.688 523.961 232.52 524.063 231.654 523.769C227.052 522.208 225.921 515.275 229.142 512.072L320.736 420.945C323.365 418.328 327.775 418.327 330.404 420.945C332.603 423.133 334.625 425.449 336.494 427.856C331.448 429.202 326.85 434.244 326.172 439.428C325.312 446.008 330.033 452.224 336.62 453.135C334.003 461.067 332.331 469.339 331.661 477.819C327.406 465.753 308.039 464.999 306.611 479.336C305.275 492.719 325.323 500.321 331.303 486.869C331.365 499.682 333.694 512.133 338.095 523.771H291.695H291.693ZM364.917 523.771C358.961 512.352 355.783 499.599 355.783 486.343C355.783 464.58 364.278 444.139 379.705 428.791C381.436 427.069 383.741 426.122 386.198 426.122C388.655 426.122 390.959 427.069 392.692 428.792L404.706 440.745C397.045 450.513 392.88 462.46 392.88 475.052C392.88 489.989 398.725 504.032 409.336 514.59C413.002 518.235 417.091 521.3 421.484 523.769H364.917V523.771ZM448.985 506.444C440.525 506.444 432.58 503.171 426.606 497.229C420.649 491.3 417.367 483.424 417.367 475.05C417.367 469 419.08 463.208 422.277 458.224L465.877 501.6C460.872 504.757 455.061 506.444 448.985 506.444ZM476.488 523.771C478.921 522.404 481.257 520.85 483.48 519.116L488.16 523.771H476.488ZM455.813 457.044C460.311 441.989 474.36 430.974 490.957 430.974C506.566 430.974 519.919 440.72 525.197 454.403C524.249 455.163 523.329 455.966 522.455 456.835L489.032 490.088L455.813 457.044ZM589.055 523.096L588.377 523.771H519.752C518.105 520.097 515.791 516.715 512.846 513.783L506.39 507.361L539.724 474.196C543.26 470.677 549.188 470.675 552.727 474.192L589.055 510.338C592.551 513.814 592.551 519.618 589.055 523.096ZM598.929 485.616L569.998 456.831C564.21 451.075 556.68 447.706 548.602 447.147C540.208 423.488 517.55 406.483 490.957 406.483C486.313 406.483 481.792 407.013 477.444 407.994L404.317 335.24C399.522 330.47 391.77 330.49 387.002 335.283C382.233 340.078 382.251 347.831 387.045 352.598L453.822 419.034C446.985 424.259 441.294 430.895 437.167 438.492L430.641 431.999C430.638 431.995 430.635 431.992 430.631 431.989L409.963 411.43C403.611 405.109 395.17 401.631 386.197 401.631C377.222 401.631 368.781 405.111 362.431 411.43C360.951 412.9 359.537 414.419 358.156 415.961C355.087 411.656 351.651 407.566 347.836 403.752C348.273 396.247 350.328 387.778 354.047 378.77C355.64 374.914 355.159 370.509 352.77 367.089C339.665 348.317 341.964 322.943 358.234 306.757C367.223 297.812 379.18 292.889 391.902 292.889C401.683 292.889 411.069 295.803 419.05 301.317C422.455 303.668 426.816 304.145 430.644 302.578C440.681 298.475 450.433 296.307 458.849 296.307C468.088 296.307 475.275 298.795 480.21 303.706C488.527 311.978 489.927 327.203 484.05 345.478C482.646 349.842 483.799 354.625 487.035 357.872C490.271 361.117 495.049 362.286 499.419 360.897C506.846 358.533 513.832 357.334 520.183 357.334C529.427 357.334 536.618 359.823 541.552 364.733C549.868 373.008 551.268 388.233 545.393 406.508C543.99 410.873 545.141 415.656 548.379 418.902C551.613 422.147 556.394 423.319 560.763 421.925C568.191 419.563 575.177 418.363 581.529 418.363C590.771 418.363 597.96 420.852 602.898 425.766C607.82 430.663 610.316 437.788 610.316 446.944C610.315 458.71 606.223 472.149 598.929 485.616ZM685.514 523.771H633.212C632.048 520.73 631.406 517.436 631.406 513.994C631.406 498.691 643.948 486.241 659.364 486.241C674.779 486.241 687.321 498.691 687.321 513.994C687.32 517.435 686.676 520.729 685.514 523.771ZM753.587 445.638C751.198 449.06 750.717 453.461 752.309 457.317C760.364 476.828 760.044 493.577 751.451 502.122C747.025 506.524 740.542 508.757 732.178 508.757C726.358 508.757 719.947 507.655 713.122 505.482C712.429 505.26 711.726 505.125 711.02 505.033C708.397 489.974 699.289 477.105 686.664 469.403L723 433.252C727.793 428.483 727.814 420.73 723.043 415.936C718.272 411.142 710.52 411.122 705.728 415.894L659.631 461.755C659.539 461.755 659.449 461.749 659.359 461.749C649.187 461.749 639.69 464.657 631.642 469.671C633.71 461.892 634.802 454.256 634.801 446.942C634.801 441.833 633.673 427.958 632.967 425.759C627.599 409.073 628.826 395.225 636.327 387.762C640.752 383.361 647.235 381.128 655.598 381.128C663.315 381.128 672.278 383.125 681.515 386.898C685.343 388.466 689.704 387.989 693.109 385.637C700.387 380.609 708.954 377.95 717.879 377.95C729.487 377.95 740.397 382.444 748.598 390.602C763.444 405.369 765.542 428.514 753.587 445.638Z" fill="black"/>
</svg>
